<?xml version="1.0" encoding="UTF-8"?>
<!DOCTYPE svg PUBLIC "-//W3C//DTD SVG 1.1//EN" "http://www.w3.org/Graphics/SVG/1.1/DTD/svg11.dtd">
<svg xmlns="http://www.w3.org/2000/svg" version="1.1" width="512px" height="512px" style="shape-rendering:geometricPrecision; text-rendering:geometricPrecision; image-rendering:optimizeQuality; fill-rule:evenodd; clip-rule:evenodd" xmlns:xlink="http://www.w3.org/1999/xlink">
<g><path style="opacity:0.943" fill="#000000" d="M 511.5,175.5 C 511.5,185.833 511.5,196.167 511.5,206.5C 507.672,227.134 500.172,246.467 489,264.5C 474.935,286.612 458.935,307.279 441,326.5C 386.05,382.152 325.883,430.986 260.5,473C 257.167,473.667 253.833,473.667 250.5,473C 185.117,430.986 124.95,382.152 70,326.5C 52.0651,307.279 36.0651,286.612 22,264.5C 10.8281,246.467 3.32813,227.134 -0.5,206.5C -0.5,196.167 -0.5,185.833 -0.5,175.5C 8.19601,117.929 38.5293,76.0953 90.5,50C 150.963,26.2994 205.963,35.4661 255.5,77.5C 303.149,36.7255 356.482,26.8921 415.5,48C 470.372,73.2291 502.372,115.729 511.5,175.5 Z M 151.5,57.5 C 190.527,58.5164 223.193,73.3497 249.5,102C 253.5,104 257.5,104 261.5,102C 303.125,59.3456 352.125,48.0123 408.5,68C 460.094,92.6323 487.428,133.632 490.5,191C 490.91,200.37 489.744,209.537 487,218.5C 479.019,240.804 467.686,261.137 453,279.5C 427.904,310.597 400.07,339.097 369.5,365C 333.11,395.69 295.11,424.19 255.5,450.5C 195.174,411.038 139.341,365.705 88,314.5C 71.1442,296.318 55.8109,276.985 42,256.5C 14.7018,213.762 13.3684,170.095 38,125.5C 63.9192,83.1054 101.753,60.4388 151.5,57.5 Z"/></g>
<g><path style="opacity:0.89" fill="#000000" d="M 344.5,92.5 C 355.486,91.6526 359.986,96.6526 358,107.5C 352.749,114.475 346.749,115.142 340,109.5C 336.098,102.376 337.598,96.7097 344.5,92.5 Z"/></g>
<g><path style="opacity:0.935" fill="#000000" d="M 383.5,94.5 C 407.163,99.4174 425.996,111.751 440,131.5C 453.497,150.825 459.164,172.158 457,195.5C 451.42,203.023 445.42,203.357 439,196.5C 438.14,168.55 427.307,145.383 406.5,127C 397.381,121.076 387.881,115.91 378,111.5C 374.644,103.937 376.477,98.2705 383.5,94.5 Z"/></g>
</svg>
